<svg xmlns="http://www.w3.org/2000/svg" viewBox="0 0 716.4 126.07"><defs><style>.cls-1{fill:#3662a6;}.cls-2{fill:#e6b54a;}.cls-3{fill:#211915;}</style></defs><title>Logo miti miti</title><g id="Capa_2" data-name="Capa 2"><g id="NUEVO"><path class="cls-1" d="M51.31,99.27c-10.67,2.3-24.21-9-25.91-23.5A27.49,27.49,0,0,1,31,54.87,29.83,29.83,0,0,1,51.73,43.6a32.36,32.36,0,0,0-24.29,7.79A35,35,0,0,0,15.4,76a42.48,42.48,0,0,0,8.28,27.74,37.88,37.88,0,0,0,27.63,15.51Z"/><path class="cls-2" d="M51.09,39.93A36.92,36.92,0,0,0,23,49.71,39.39,39.39,0,0,0,10.46,78.88a46.23,46.23,0,0,0,12.59,31.75A49,49,0,0,0,55.61,126a51.48,51.48,0,0,1-36-11.67A53.76,53.76,0,0,1,.48,79.58,52,52,0,0,1,12,39.52,54.44,54.44,0,0,1,51.09,19.93Z"/><path class="cls-1" d="M51.09,20A50.28,50.28,0,0,1,86.88,32a54.73,54.73,0,0,1,18.85,35.09,51.39,51.39,0,0,1-11.54,39.53A53.94,53.94,0,0,1,55.61,126a56.43,56.43,0,0,0,42.24-15.89A59,59,0,0,0,115.71,66.5,67.22,67.22,0,0,0,97.28,21.22,67.93,67.93,0,0,0,51.09,0Z"/><path class="cls-3" d="M183.86,90s0,0,0,0c-3.43,2.76-8.43,4.38-15.57,4.38-14.28,0-22-10.13-22-22.62,0-15.88,12.22-22.63,20.48-22.63,5.51,0,12.59,1.88,16.12,6.06.14.17,7.28-4.19,1.47-8.23-4.51-3.13-10.15-4.35-16.07-4.35-18.08,0-29.84,12.9-29.84,29.15s11.76,29.42,29.84,29.42c7.94,0,14.18-1.93,18.85-5.23l.06,0Z"/><path class="cls-3" d="M210,58C197.16,58,188,67.59,188,79.44s9.31,21.47,21.93,21.47,21.92-9.61,21.92-21.47S222.75,58,210,58Zm0,36.56c-8.3,0-14.42-6.76-14.42-15.1,0-8.74,6-15.09,14.42-15.09s14.41,6.3,14.41,15.09C224.37,87.78,218.17,94.54,210,94.54Z"/><path class="cls-3" d="M274.07,58c-12.8,0-21.92,9.61-21.92,21.46s9.31,21.47,21.92,21.47S296,91.3,296,79.44,286.87,58,274.07,58Zm0,36.56c-8.3,0-14.42-6.76-14.42-15.1,0-8.74,6-15.09,14.42-15.09s14.42,6.3,14.42,15.09C288.49,87.78,282.29,94.54,274.07,94.54Z"/><path class="cls-3" d="M245.56,41c-1.31-1.15-7.09-2.26-7.09,2.77v56h7.09Z"/><path class="cls-3" d="M716.4,41c-1.31-1.15-7.1-2.26-7.1,2.77v56h7.1Z"/><path class="cls-3" d="M395.59,58a21.28,21.28,0,0,0-14.3,5.21V41c-1.31-1.15-7.09-2.26-7.09,2.77v56h7.09V95.92a22.07,22.07,0,0,0,36-16.48C417.33,67.59,408.28,58,395.59,58Zm0,36.56c-8.22,0-14.29-6.76-14.29-15.1,0-8.74,5.95-15.09,14.29-15.09s14.3,6.3,14.3,15.09C409.89,87.78,403.74,94.54,395.59,94.54Z"/><path class="cls-3" d="M431,60.09c-1.3-1.14-7.09-2.26-7.09,2.77V99.77H431Z"/><path class="cls-3" d="M349,58c-4.94,0-10.45,2.76-14,7.4-2.67-4.11-7.28-7.4-15-7.4-9.31,0-17.7,4.84-17.7,15.66v26.1h7.08V76.29c0-9.13,5.09-11.94,10.75-11.94,9.11,0,11.16,7.1,11.16,11.94V99.74h7.11V76.29c0-8.94,5.72-11.94,10.75-11.94,9.12,0,11.16,7.1,11.16,11.94V99.74h7.08V74.45C367.33,65.76,362.92,58,349,58Z"/><circle class="cls-3" cx="427.44" cy="46.42" r="4.79"/><path class="cls-3" d="M628.86,60.09c-1.31-1.14-7.1-2.26-7.1,2.77V99.77h7.1Z"/><path class="cls-3" d="M657.69,59.22H644.51V49.61c-1.71-1-7-2.15-7,2.88V88.37c0,5.28,2.36,8.68,4.88,10.3,5.18,3.32,14.61,3,20.41-1.83-1-1.5-2.19-3.24-3.2-4.76-3.95,3.11-15.14,5.13-15.14-4.17V65.69h16C661.6,63.68,662,59.22,657.69,59.22Z"/><circle class="cls-3" cx="625.31" cy="46.42" r="4.79"/><path class="cls-3" d="M564.93,60.09c-1.31-1.14-7.1-2.26-7.1,2.77V99.77h7.1Z"/><circle class="cls-3" cx="561.38" cy="46.42" r="4.79"/><path class="cls-3" d="M474.93,74.51a17.41,17.41,0,0,0-3.34-10.41c-6.18-8.58-29.12-7.35-30.31-1.38a4.27,4.27,0,0,0,2.35,4.87c2.85-2.55,7-3.47,11.64-3.34,5.85.16,12.4,1.87,12.61,10.52-10.67-1.18-30.61-3.2-30.62,12.36,0,12.61,12.22,13.71,20.76,13.71a98.4,98.4,0,0,0,16.92-1.4S474.86,89.67,474.93,74.51ZM467.9,94c-2.21.5-3.88.85-11.64.85-8.11,0-11.95-2.43-11.84-7.25s2.86-7.49,11.84-7.49A54.7,54.7,0,0,1,467.9,81Z"/><path class="cls-3" d="M701,74.56a17.41,17.41,0,0,0-3.34-10.41c-6.17-8.58-29.12-7.34-30.31-1.37a4.27,4.27,0,0,0,2.36,4.87c2.85-2.56,7-3.48,11.63-3.35,5.85.16,12.4,1.88,12.61,10.52-10.67-1.18-30.61-3.19-30.61,12.36,0,12.61,12.22,13.72,20.76,13.72A98.16,98.16,0,0,0,701,99.49S700.9,89.72,701,74.56Zm-7,19.45c-2.22.5-3.89.86-11.65.86-8.11,0-11.94-2.44-11.84-7.26s2.86-7.49,11.84-7.49a54.89,54.89,0,0,1,11.65.94Z"/><path class="cls-3" d="M614.45,79.45c0-12.07-8.4-21.3-21.26-21.3-12.65,0-21.67,9.44-21.67,21.3,0,12.27,8.45,21.46,21.67,21.46a18.35,18.35,0,0,0,14.35-6.37c-.09,19.87-21.65,16.29-29.62,12.83-.78,2.21-2,5.86-2,5.86,9.25,4.4,23.63,3.83,29.86-.75C615.88,105.09,614.45,94.79,614.45,79.45Zm-21.4,15.21c-8.2,0-14.14-5.74-14.14-15.21,0-8.75,6-15.1,14.28-15.1s14.26,6.31,14.26,15.1C607.45,88.92,601.18,94.66,593.05,94.66Z"/><path class="cls-3" d="M512.94,43.5c-9.09.78-12.34.15-12.34,5.6V99.56a146.89,146.89,0,0,0,17.95,1c19.22-.25,32.11-10.36,32.11-29C550.66,51.74,534.71,42,512.94,43.5Zm3.52,50.7a47.08,47.08,0,0,1-8.69-.76v-43a60.38,60.38,0,0,1,8.69-.57c14.65,0,26.58,5.69,26.58,21.83C543,88.32,531.11,94.2,516.46,94.2Z"/></g></g></svg>