<svg xmlns="http://www.w3.org/2000/svg" viewBox="0 0 128 128"><defs><style>.cls-1{fill:#fff;}.cls-2{fill:#1d2124;}</style></defs><title>ico-pinterest-footer</title><g id="Capa_2" data-name="Capa 2"><g id="Iconos"><rect id="pinterest-back" class="cls-1" width="128" height="128"/><path id="pinterest-pinterest" class="cls-2" d="M91.75,51.75c0,16.16-9,28.22-22.21,28.22-4.44,0-8.62-2.4-10.06-5.13,0,0-2.39,9.49-2.9,11.32-1.78,6.46-7,12.94-7.43,13.47a.55.55,0,0,1-1-.23c-.11-.83-1.45-9,.13-15.65l5.3-22.43a15.83,15.83,0,0,1-1.32-6.52c0-6.1,3.54-10.66,7.94-10.66,3.75,0,5.56,2.81,5.56,6.18,0,3.77-2.4,9.4-3.64,14.61-1,4.37,2.19,7.93,6.5,7.93,7.8,0,13-10,13-21.89,0-9-6.07-15.78-17.13-15.78-12.49,0-20.27,9.31-20.27,19.72A11.88,11.88,0,0,0,47,63a2,2,0,0,1,.59,2.3c-.2.76-.65,2.58-.84,3.3a1.42,1.42,0,0,1-2.06,1c-5.75-2.35-8.43-8.65-8.43-15.73,0-11.7,9.86-25.72,29.42-25.72C81.41,28.16,91.75,39.53,91.75,51.75Z"/></g></g></svg>