<svg xmlns="http://www.w3.org/2000/svg" viewBox="0 0 128 128"><defs><style>.cls-1{fill:#fff;}.cls-2{fill:#1d2124;}</style></defs><title>ico-footer-soundcloud</title><g id="Capa_2" data-name="Capa 2"><g id="Iconos"><g id="vine-vine"><rect id="vine-back" class="cls-1" width="128" height="128"/><path class="cls-2" d="M29.81,64.62a.33.33,0,0,0-.32.31l-.74,6.8.74,6.65a.31.31,0,0,0,.63,0L31,71.73l-.85-6.8A.33.33,0,0,0,29.81,64.62Z"/><path class="cls-2" d="M27,67.23a.31.31,0,0,0-.3.3l-.55,4.2.55,4.13a.31.31,0,0,0,.3.3.32.32,0,0,0,.3-.29L28,71.73l-.66-4.21A.32.32,0,0,0,27,67.23Z"/><path class="cls-2" d="M32.78,63.29a.39.39,0,0,0-.38.37l-.71,8.07.71,7.77a.39.39,0,0,0,.38.37.39.39,0,0,0,.38-.37l.8-7.77-.8-8.07A.39.39,0,0,0,32.78,63.29Z"/><path class="cls-2" d="M35.78,63a.45.45,0,0,0-.45.44l-.67,8.29.67,8a.44.44,0,0,0,.89,0l.76-8-.76-8.29A.46.46,0,0,0,35.78,63Z"/><polygon class="cls-2" points="39.31 79.81 39.31 79.81 39.31 79.81 39.31 79.81"/><path class="cls-2" d="M39.31,64a.51.51,0,0,0-1,0l-.63,7.69.63,8.08a.51.51,0,0,0,1,0L40,71.73Z"/><path class="cls-2" d="M41.85,58.66a.58.58,0,0,0-.57.57l-.59,12.51.59,8.08a.57.57,0,0,0,1.15,0h0l.67-8.08-.67-12.51A.59.59,0,0,0,41.85,58.66Z"/><path class="cls-2" d="M44.87,55.78a.65.65,0,0,0-.64.63l-.55,15.37.55,8a.64.64,0,0,0,1.27,0h0l.63-8-.63-15.37A.65.65,0,0,0,44.87,55.78Z"/><path class="cls-2" d="M48,54.39a.71.71,0,0,0-.7.7L46.8,71.74l.51,7.95a.7.7,0,0,0,1.4,0h0l.58-8-.58-16.65A.71.71,0,0,0,48,54.39Z"/><path class="cls-2" d="M51.9,54.52a.77.77,0,0,0-1.53,0l-.48,17.21.48,7.9a.77.77,0,0,0,1.53,0l.54-7.9Z"/><polygon class="cls-2" points="51.9 79.63 51.9 79.63 51.9 79.64 51.9 79.63"/><path class="cls-2" d="M54.28,54.14a.83.83,0,0,0-.83.83L53,71.74l.44,7.82a.83.83,0,0,0,1.66,0h0l.49-7.83L55.11,55A.83.83,0,0,0,54.28,54.14Z"/><path class="cls-2" d="M57.45,54.69a.9.9,0,0,0-.9.89l-.4,16.16.4,7.78a.9.9,0,0,0,1.79,0h0l.45-7.78-.45-16.16A.9.9,0,0,0,57.45,54.69Z"/><path class="cls-2" d="M61.17,51.72a.94.94,0,0,0-1,0,1,1,0,0,0-.44.8v.18l-.36,19s.36,7.73.36,7.73,0,0,0,0a1,1,0,0,0,1,.92,1,1,0,0,0,.67-.28,1,1,0,0,0,.29-.68l0-.76.36-7-.4-19.23A1,1,0,0,0,61.17,51.72Z"/><polygon class="cls-2" points="61.6 79.47 61.6 79.46 61.6 79.47 61.6 79.46 61.6 79.46 61.6 79.46 61.6 79.46 61.6 79.47"/><path class="cls-2" d="M64.34,49.89a1,1,0,0,0-.52-.15,1,1,0,0,0-.65.23,1,1,0,0,0-.38.79v.11l-.42,20.87.21,3.86.21,3.75a1,1,0,0,0,2.05,0h0l.46-7.61h0l-.46-21A1,1,0,0,0,64.34,49.89Z"/><path class="cls-2" d="M92.54,61.81a9.31,9.31,0,0,0-3.6.72,16.43,16.43,0,0,0-16.36-15,16.65,16.65,0,0,0-6,1.11c-.7.27-.89.55-.89,1.09V79.32a1.09,1.09,0,0,0,1,1.07H92.54a9.29,9.29,0,1,0,0-18.57Z"/></g></g></g></svg>