<svg xmlns="http://www.w3.org/2000/svg" viewBox="0 0 128 128"><defs><style>.cls-1{fill:#fff;}.cls-2{fill:#1d2124;}</style></defs><title>ico-facebook-footer</title><g id="Capa_2" data-name="Capa 2"><g id="Iconos"><rect id="facebook-back" class="cls-1" width="128" height="128"/><path id="facebook-facebook" class="cls-2" d="M95.88,28.16H32.12a4,4,0,0,0-4,4V95.88a4,4,0,0,0,4,4H66.45V72.08H57.11V61.26h9.34v-8C66.45,44,72.1,39,80.36,39a76.59,76.59,0,0,1,8.35.43v9.68H83c-4.49,0-5.36,2.13-5.36,5.27v6.91H88.33L86.94,72.08H77.62V99.84H95.88a4,4,0,0,0,4-4V32.12A4,4,0,0,0,95.88,28.16Z"/></g></g></svg>