<svg xmlns="http://www.w3.org/2000/svg" viewBox="0 0 128 128"><defs><style>.cls-1{fill:#fff;}.cls-2{fill:#1d2124;}</style></defs><title>ico-instagram-footer</title><g id="Capa_2" data-name="Capa 2"><g id="Iconos"><rect id="instagram-back" class="cls-1" width="128" height="128"/><path id="instagram-instagram" class="cls-2" d="M91.57,58.48H85.33a22.06,22.06,0,1,1-42.66,0H36.43V88.81a2.76,2.76,0,0,0,2.76,2.75H88.81a2.76,2.76,0,0,0,2.76-2.75Zm0-19.3a2.76,2.76,0,0,0-2.76-2.76H80.54a2.76,2.76,0,0,0-2.76,2.76v8.27a2.76,2.76,0,0,0,2.76,2.76h8.27a2.76,2.76,0,0,0,2.76-2.76ZM64,50.21A13.79,13.79,0,1,0,77.79,64,13.78,13.78,0,0,0,64,50.21M91.57,99.84H36.43a8.27,8.27,0,0,1-8.27-8.27V36.43a8.27,8.27,0,0,1,8.27-8.27H91.57a8.27,8.27,0,0,1,8.27,8.27V91.57a8.27,8.27,0,0,1-8.27,8.27"/></g></g></svg>