<svg xmlns="http://www.w3.org/2000/svg" viewBox="0 0 386.52 201.08"><defs><style>.cls-1{fill:#fff;}</style></defs><title>logo-ccd-blanco</title><g id="Capa_2" data-name="Capa 2"><g id="Layer_1" data-name="Layer 1"><path class="cls-1" d="M217.62,138.84c-.73.52-1.43,1-2.11,1.45a12.8,12.8,0,0,1-2.15,1.14,13.59,13.59,0,0,1-2.46.75,14.9,14.9,0,0,1-3,.28,15.48,15.48,0,0,1-4.41-.61,12,12,0,0,1-3.6-1.71,8.24,8.24,0,0,1-2.38-2.56,6.18,6.18,0,0,1-.86-3.16V110.38a6,6,0,0,1,.86-3.13,8.42,8.42,0,0,1,2.38-2.54,12.55,12.55,0,0,1,3.6-1.73,14.78,14.78,0,0,1,4.41-.64,12.32,12.32,0,0,1,5.78,1.2,43.24,43.24,0,0,1,4.76,3l-5.24,3.91a6.5,6.5,0,0,1-.78-.53,4.12,4.12,0,0,1-.63-.64l.08.06a16.91,16.91,0,0,0-1.8-1.11,4.53,4.53,0,0,0-2.19-.5,4.44,4.44,0,0,0-2.66.78,2.28,2.28,0,0,0-1.09,1.9v24.06a2.28,2.28,0,0,0,1.09,1.9,4.44,4.44,0,0,0,2.66.78,4.57,4.57,0,0,0,2.19-.5,12.85,12.85,0,0,0,1.8-1.17l-.08.06c.21-.19.42-.36.63-.53s.47-.36.78-.59l4.46,3.35Z"/><path class="cls-1" d="M241.75,137.59a8.7,8.7,0,0,1-2.42,2.56,12.08,12.08,0,0,1-3.56,1.71,16,16,0,0,1-8.75,0,12,12,0,0,1-3.55-1.71,8.67,8.67,0,0,1-2.42-2.56,6,6,0,0,1-.9-3.16V123.72a5.84,5.84,0,0,1,.9-3.13,8.82,8.82,0,0,1,2.42-2.54,12.05,12.05,0,0,1,3.55-1.7,15.93,15.93,0,0,1,8.75,0,12.13,12.13,0,0,1,3.56,1.7,8.84,8.84,0,0,1,2.42,2.54,5.86,5.86,0,0,1,.9,3.13v10.71A6,6,0,0,1,241.75,137.59Zm-6.6-13.87a2.29,2.29,0,0,0-1.09-1.9,4.92,4.92,0,0,0-5.31,0,2.29,2.29,0,0,0-1.09,1.9v10.71a2.28,2.28,0,0,0,1.09,1.9,4.91,4.91,0,0,0,5.31,0,2.28,2.28,0,0,0,1.09-1.9Z"/><path class="cls-1" d="M246.65,102.34h7.5v40.13h-7.5Z"/><path class="cls-1" d="M279.83,137.59a8.7,8.7,0,0,1-2.42,2.56,12.09,12.09,0,0,1-3.56,1.71,16,16,0,0,1-8.75,0,12,12,0,0,1-3.55-1.71,8.66,8.66,0,0,1-2.42-2.56,6,6,0,0,1-.9-3.16V123.72a5.84,5.84,0,0,1,.9-3.13,8.8,8.8,0,0,1,2.42-2.54,12,12,0,0,1,3.55-1.7,15.93,15.93,0,0,1,8.75,0,12.14,12.14,0,0,1,3.56,1.7,8.84,8.84,0,0,1,2.42,2.54,5.86,5.86,0,0,1,.9,3.13v10.71A6,6,0,0,1,279.83,137.59Zm-6.6-13.87a2.29,2.29,0,0,0-1.09-1.9,4.92,4.92,0,0,0-5.31,0,2.29,2.29,0,0,0-1.09,1.9v10.71a2.28,2.28,0,0,0,1.09,1.9,4.91,4.91,0,0,0,5.31,0,2.28,2.28,0,0,0,1.09-1.9Z"/><path class="cls-1" d="M314.6,142.47V123.55a2.28,2.28,0,0,0-1.09-1.9,4.92,4.92,0,0,0-5.31,0,2.28,2.28,0,0,0-1.09,1.9v18.92h-7.5V123.55a2.29,2.29,0,0,0-1.09-1.9,4.92,4.92,0,0,0-5.31,0,2.28,2.28,0,0,0-1.09,1.9v18.92h-7.5V123.55a6.6,6.6,0,0,1,2.26-5,11.54,11.54,0,0,1,6-2.79h5.86a11,11,0,0,1,4.61,1.73,12.51,12.51,0,0,1,4.53-1.73h5.86a11.54,11.54,0,0,1,6,2.79,6.6,6.6,0,0,1,2.26,5v18.92Z"/><path class="cls-1" d="M348.2,137.59a8.66,8.66,0,0,1-2.42,2.56,12,12,0,0,1-3.55,1.71,15.09,15.09,0,0,1-4.38.61H326.59V102.34h7.5v13.4h3.75a15.12,15.12,0,0,1,4.38.61,12.09,12.09,0,0,1,3.55,1.7,8.8,8.8,0,0,1,2.42,2.54,5.84,5.84,0,0,1,.9,3.13v10.71A6,6,0,0,1,348.2,137.59Zm-6.6-13.87a2.29,2.29,0,0,0-1.09-1.9,4.46,4.46,0,0,0-2.66-.78h-3.75v16.07h3.75a4.46,4.46,0,0,0,2.66-.78,2.29,2.29,0,0,0,1.09-1.9Z"/><path class="cls-1" d="M352.78,109.77v-6.7h7.5v6.7Zm.31,32.71V115.74h7.5v26.73Z"/><path class="cls-1" d="M379.49,141.86a19.88,19.88,0,0,1-2,.45,13.48,13.48,0,0,1-2.19.17,15.07,15.07,0,0,1-4.38-.61,12,12,0,0,1-3.56-1.71,8.22,8.22,0,0,1-2.38-2.56,6.18,6.18,0,0,1-.86-3.16,6,6,0,0,1,.86-3.13,8.4,8.4,0,0,1,2.38-2.54A12.65,12.65,0,0,1,370.9,127a14.52,14.52,0,0,1,4.38-.64H379v-2.68a2.3,2.3,0,0,0-1.09-1.9,4.46,4.46,0,0,0-2.66-.78,4.14,4.14,0,0,0-2.15.53q-.9.53-1.76,1.14v-.06a2.74,2.74,0,0,1-.66.61c-.24.15-.48.32-.74.5l-5.24-3.91a38.22,38.22,0,0,1,4.77-2.93,12.6,12.6,0,0,1,5.78-1.2,15.12,15.12,0,0,1,4.38.61,12.08,12.08,0,0,1,3.55,1.7,8.8,8.8,0,0,1,2.42,2.54,5.84,5.84,0,0,1,.9,3.13v18.75h-7Zm-.16-10.11h-4.06a4.45,4.45,0,0,0-2.66.78,2.19,2.19,0,0,0,0,3.8,4.44,4.44,0,0,0,2.66.78,5.2,5.2,0,0,0,2.81-.78,2.24,2.24,0,0,0,1.25-1.9Z"/><path class="cls-1" d="M220.08,185.43a8.66,8.66,0,0,1-2.42,2.57,12.05,12.05,0,0,1-3.55,1.7,15.06,15.06,0,0,1-4.38.61H198.48V155.54H196.6v-5.36h13.13a14.44,14.44,0,0,1,4.38.64,12.67,12.67,0,0,1,3.55,1.73,8.86,8.86,0,0,1,2.42,2.54,5.83,5.83,0,0,1,.9,3.13v24.06A6,6,0,0,1,220.08,185.43Zm-6.6-27.21a2.28,2.28,0,0,0-1.09-1.9,4.45,4.45,0,0,0-2.65-.78H206V185h3.75a4.45,4.45,0,0,0,2.65-.78,2.28,2.28,0,0,0,1.09-1.9Z"/><path class="cls-1" d="M227,157.61v-6.7h7.5v6.7Zm.31,32.71V163.58h7.5v26.73Z"/><path class="cls-1" d="M263.37,193a5.85,5.85,0,0,1-.9,3.12,8.92,8.92,0,0,1-2.42,2.54,12.71,12.71,0,0,1-3.56,1.73,14.43,14.43,0,0,1-4.38.64,14.65,14.65,0,0,1-3.13-.31,13.62,13.62,0,0,1-2.66-.86,16.75,16.75,0,0,1-2.42-1.34q-1.17-.78-2.34-1.67L246.8,193q.39.28.74.5a1.8,1.8,0,0,1,.58.62v-.06a20,20,0,0,0,1.8,1.14,4.36,4.36,0,0,0,2.19.53,4.45,4.45,0,0,0,2.66-.78,2.28,2.28,0,0,0,1.09-1.9v-3.13a17.56,17.56,0,0,1-3.75.45,15.72,15.72,0,0,1-4.38-.59,11.94,11.94,0,0,1-3.55-1.65,8.51,8.51,0,0,1-2.42-2.51,5.94,5.94,0,0,1-.9-3.18v-11a5.85,5.85,0,0,1,.9-3.13,8.83,8.83,0,0,1,2.42-2.54,12.07,12.07,0,0,1,3.55-1.7,15.93,15.93,0,0,1,8.75,0,12.15,12.15,0,0,1,3.56,1.7,8.87,8.87,0,0,1,2.42,2.54,5.86,5.86,0,0,1,.9,3.13Zm-8.59-23.47a5.07,5.07,0,0,0-5.31,0,2.22,2.22,0,0,0-1.09,1.87v11a2.28,2.28,0,0,0,1.09,1.9,4.92,4.92,0,0,0,5.31,0,2.29,2.29,0,0,0,1.09-1.9v-11A2.22,2.22,0,0,0,254.78,169.58Z"/><path class="cls-1" d="M269.38,157.61v-6.7h7.5v6.7Zm.31,32.71V163.58h7.5v26.73Z"/><path class="cls-1" d="M298.54,190.31h-3.75a15.46,15.46,0,0,1-4.41-.61,11.92,11.92,0,0,1-3.59-1.7,8.23,8.23,0,0,1-2.38-2.57,6.18,6.18,0,0,1-.86-3.15V150.18H291v13.4h7.5v5.3H291v13.39a2.28,2.28,0,0,0,1.09,1.9,4.44,4.44,0,0,0,2.65.78h3.75Z"/><path class="cls-1" d="M318.41,189.7a19.91,19.91,0,0,1-2,.45,13.48,13.48,0,0,1-2.19.17,15.05,15.05,0,0,1-4.38-.61,12,12,0,0,1-3.56-1.7,8.23,8.23,0,0,1-2.38-2.57,6.18,6.18,0,0,1-.86-3.15,6,6,0,0,1,.86-3.13,8.39,8.39,0,0,1,2.38-2.54,12.66,12.66,0,0,1,3.56-1.73,14.5,14.5,0,0,1,4.38-.64h3.75v-2.68a2.29,2.29,0,0,0-1.09-1.9,4.45,4.45,0,0,0-2.66-.78,4.14,4.14,0,0,0-2.15.53q-.9.53-1.76,1.14v-.06a2.67,2.67,0,0,1-.66.61c-.24.15-.48.32-.74.5l-5.24-3.91a38.11,38.11,0,0,1,4.77-2.93,12.6,12.6,0,0,1,5.78-1.2,15.16,15.16,0,0,1,4.38.61,12.08,12.08,0,0,1,3.55,1.71,8.8,8.8,0,0,1,2.42,2.54,5.84,5.84,0,0,1,.9,3.13v18.75h-7Zm-.16-10.1h-4.06a4.45,4.45,0,0,0-2.66.78,2.19,2.19,0,0,0,0,3.8,4.45,4.45,0,0,0,2.66.78,5.2,5.2,0,0,0,2.81-.78,2.24,2.24,0,0,0,1.25-1.9Z"/><path class="cls-1" d="M332,150.18h7.5v40.13H332Z"/><path class="cls-1" d="M81.84,158.33c-17,3.67-38.62-14.3-41.32-37.48a43.84,43.84,0,0,1,9-33.32,47.63,47.63,0,0,1,33-18A51.65,51.65,0,0,0,43.77,82a55.92,55.92,0,0,0-19.21,39.3,67.77,67.77,0,0,0,13.21,44.25c9.47,13.08,25.57,23.5,44.07,24.73Z"/><path class="cls-1" d="M81.48,63.69a58.83,58.83,0,0,0-44.77,15.6,62.78,62.78,0,0,0-20,46.52,73.68,73.68,0,0,0,20.08,50.63A78.09,78.09,0,0,0,88.7,200.9a82.1,82.1,0,0,1-57.37-18.61A85.73,85.73,0,0,1,.77,126.93,82.9,82.9,0,0,1,19.14,63,86.89,86.89,0,0,1,81.48,31.78Z"/><path class="cls-1" d="M81.48,31.92A80.24,80.24,0,0,1,138.56,51.1a87.22,87.22,0,0,1,30.07,56,82,82,0,0,1-18.4,63A86,86,0,0,1,88.7,200.9c24.13,1.5,49.26-7.71,67.37-25.34,18.33-17.37,29.08-43.27,28.49-69.49-.16-26.15-10.75-52.54-29.41-72.22A108.31,108.31,0,0,0,81.48,0Z"/></g></g></svg>